<svg width="4851" height="4954" viewBox="0 0 4851 4954" fill="none" xmlns="http://www.w3.org/2000/svg">
<path fill-rule="evenodd" clip-rule="evenodd" d="M2840.81 3889.71C2891 3918.68 2921.92 3971.94 2921.93 4029.89C2921.94 4137.27 2921.97 4324.26 2922 4521.36C2922.03 4760.29 3115.76 4954 3354.68 4954C3660.02 4954 3941.36 4954 3941.36 4954C4223.89 4954 4365.33 4954 4476.75 4907.83C4625.34 4846.3 4743.28 4728.14 4804.82 4579.6C4850.97 4468.17 4851 4326.97 4851 4044.52V2362.75C4851 2200.78 4850.85 2119.76 4831.17 2044.37C4813.71 1977.59 4785.06 1914.38 4746.28 1857.26C4702.5 1792.8 4641.68 1739.36 4519.74 1632.7L3064.44 359.547C2838.08 161.515 2724.9 62.5488 2597.53 24.8878C2541.42 8.29881 2483.46 0.00287507 2425.5 0C2367.54 0.00287507 2309.58 8.29881 2253.47 24.8878C2126.1 62.5488 2012.92 161.515 1786.56 359.547L331.263 1632.7C209.321 1739.36 148.501 1792.8 104.721 1857.26C65.943 1914.38 37.2919 1977.59 19.8282 2044.37C0.151507 2119.76 0 2200.78 0 2362.75V4044.52C0 4326.97 0.0303673 4468.17 46.1755 4579.6C107.723 4728.14 225.662 4846.3 374.255 4907.83C485.675 4954 627.109 4954 909.642 4954H1496.36C1735.28 4954 1928.97 4760.33 1929 4521.4L1929.07 4030.19C1929.08 3972.24 1960 3918.68 2010.19 3889.71L2344.38 3696.75C2394.58 3667.77 2456.42 3667.77 2506.62 3696.75L2840.81 3889.71ZM2759.84 2623.45C2759.83 2680.77 2790.07 2733.84 2839.38 2763.06L3653.61 3245.49C3702.93 3274.71 3733.17 3327.78 3733.16 3385.1L3733.04 4237.25C3733.03 4295.16 3702.16 4348.67 3652.04 4377.67L3497.09 4467.32C3388.92 4529.9 3253.58 4451.83 3253.6 4326.85L3253.69 3824.59C3253.7 3766.63 3222.79 3713.07 3172.61 3684.07L2506.67 3299.31C2456.45 3270.3 2394.57 3270.3 2344.35 3299.31L1678.39 3684.09C1628.21 3713.09 1597.3 3766.65 1597.31 3824.61L1597.4 4326.85C1597.42 4451.83 1462.08 4529.9 1353.91 4467.32L1198.96 4377.67C1148.84 4348.67 1117.97 4295.16 1117.96 4237.25L1117.84 3385.1C1117.83 3327.78 1148.07 3274.71 1197.39 3245.49L2011.65 2763.04C2060.95 2733.83 2091.19 2680.78 2091.2 2623.47L2091.31 1476.45C2091.32 1386.85 2163.96 1314.22 2253.55 1314.22H2597.75C2687.36 1314.22 2760 1386.87 2759.99 1476.49L2759.84 2623.45Z" fill="#6155F5"/>
<path d="M3733.16 3385.1C3733.17 3327.78 3702.93 3274.71 3653.61 3245.49L2839.38 2763.06C2790.07 2733.84 2759.83 2680.77 2759.84 2623.45L2759.99 1476.49C2760 1386.87 2687.36 1314.22 2597.75 1314.22H2253.55C2163.96 1314.22 2091.32 1386.85 2091.31 1476.45L2091.2 2623.47C2091.19 2680.78 2060.95 2733.83 2011.65 2763.04L1197.39 3245.49C1148.07 3274.71 1117.83 3327.78 1117.84 3385.1L1117.96 4237.25C1117.97 4295.16 1148.84 4348.67 1198.96 4377.67L1353.91 4467.32C1462.08 4529.9 1597.42 4451.83 1597.4 4326.85L1597.31 3824.61C1597.3 3766.65 1628.21 3713.09 1678.39 3684.09L2344.35 3299.31C2394.57 3270.3 2456.45 3270.3 2506.67 3299.31L3172.61 3684.07C3222.79 3713.07 3253.7 3766.63 3253.69 3824.59L3253.6 4326.85C3253.58 4451.83 3388.92 4529.9 3497.09 4467.32L3652.04 4377.67C3702.16 4348.67 3733.03 4295.16 3733.04 4237.25L3733.16 3385.1Z" fill="#F9FAFA"/>
</svg>
